<?xml version="1.0" encoding="iso-8859-1"?>
<!-- Uploaded to: SVG Repo, www.svgrepo.com, Generator: SVG Repo Mixer Tools -->
<svg height="800px" width="800px" version="1.1" id="Layer_1" xmlns="http://www.w3.org/2000/svg" xmlns:xlink="http://www.w3.org/1999/xlink" 
	 viewBox="0 0 511.999 511.999" xml:space="preserve">
<path style="fill:#FCD577;" d="M473.685,273.589V110.504l0,0c-38.841,0-75.97-15.174-104.321-41.722
	c-29.66-27.772-69.524-44.776-113.363-44.776s-83.704,17.004-113.364,44.777c-28.352,26.546-65.482,41.721-104.322,41.721l0,0
	V273.59"/>
<path style="fill:#CFDCE5;" d="M8.572,353.193v-17.189v-35.236c0-15.006,12.172-27.178,27.178-27.178h367.445h28.573h44.482
	c15.006,0,27.178,12.172,27.178,27.178v35.236v17.189"/>
<g>
	<path style="fill:#EAC36E;" d="M73.058,435.229v52.763H31.311l7.349-11.71c4.714-7.499,3.437-17.524-3.423-23.135
		c-5.176-4.252-8.491-10.692-8.491-17.919"/>
	<path style="fill:#EAC36E;" d="M485.254,435.229c0,7.228-3.314,13.667-8.491,17.919c-6.861,5.611-8.138,15.636-3.423,23.135
		l7.349,11.71h-41.747v-52.763"/>
</g>
<g>
	<path style="fill:#CFDCE5;" d="M144.283,179.431c-33.376,0-62.259,19.164-76.297,47.079c14.038,27.914,42.921,47.079,76.297,47.079
		s62.259-19.164,76.297-47.079C206.542,198.595,177.659,179.431,144.283,179.431z"/>
	<path style="fill:#CFDCE5;" d="M367.717,179.431c-33.376,0-62.259,19.164-76.297,47.079c14.038,27.914,42.921,47.079,76.297,47.079
		s62.259-19.164,76.297-47.079C429.977,198.595,401.093,179.431,367.717,179.431z"/>
</g>
<g>
	<path style="fill:#BAC6CC;" d="M320.563,226.511c11.948-23.759,34.653-41.17,61.726-45.829c-4.736-0.815-9.603-1.249-14.571-1.249
		c-33.376,0-62.26,19.164-76.297,47.079c14.038,27.914,42.921,47.079,76.297,47.079c4.969,0,9.836-0.434,14.571-1.249
		C355.216,267.679,332.511,250.269,320.563,226.511z"/>
	<path style="fill:#BAC6CC;" d="M97.123,226.511c11.948-23.759,34.653-41.17,61.726-45.829c-4.736-0.815-9.603-1.249-14.571-1.249
		c-33.376,0-62.26,19.164-76.297,47.079c14.038,27.914,42.921,47.079,76.297,47.079c4.969,0,9.836-0.434,14.571-1.249
		C131.776,267.679,109.071,250.269,97.123,226.511z"/>
</g>
<path style="fill:#FCD577;" d="M503.428,336.005L503.428,336.005c-44.147,0-86.35-17.248-118.576-47.422
	C351.14,257.017,305.828,237.689,256,237.689s-95.14,19.328-128.853,50.895c-32.225,30.173-74.428,47.42-118.576,47.42l0,0v99.224
	h494.856V336.005z"/>
<path d="M439.398,191.433c4.735,0,8.572-3.838,8.572-8.572v-41.282c0-4.119-2.93-7.656-6.977-8.422
	c-33.206-6.283-64.052-22.051-89.205-45.602C325.733,63.158,291.715,49.722,256,49.722c-35.714,0-69.732,13.436-95.787,37.833
	c-25.153,23.551-55.999,39.319-89.205,45.602c-4.047,0.766-6.977,4.303-6.977,8.422v41.282c0,4.734,3.837,8.572,8.572,8.572
	s8.572-3.838,8.572-8.572v-34.314c33.741-7.686,64.993-24.355,90.756-48.479c22.867-21.411,52.723-33.203,84.07-33.203
	c31.348,0,61.204,11.791,84.07,33.203c25.763,24.123,57.015,40.793,90.756,48.479v34.314
	C430.826,187.595,434.663,191.433,439.398,191.433z"/>
<path d="M482.257,265.532V110.504c0-4.734-3.837-8.572-8.572-8.572c-36.356,0-71.323-13.995-98.463-39.406
	c-5.691-5.328-11.793-10.32-18.136-14.837c-3.857-2.746-9.21-1.845-11.955,2.01c-2.745,3.857-1.846,9.208,2.01,11.955
	c5.724,4.074,11.228,8.579,16.363,13.387c28.193,26.399,63.993,41.771,101.608,43.804v146.173h-43.188
	c12.346-8.73,22.628-20.5,29.751-34.651c1.219-2.424,1.219-5.281,0.001-7.705c-16.073-31.949-48.243-51.795-83.958-51.795
	c-35.728,0-67.899,19.848-83.959,51.799c-1.218,2.424-1.217,5.281,0.003,7.704c0.127,0.253,0.263,0.501,0.392,0.751
	c-9.261-1.326-18.666-2.002-28.156-2.002s-18.895,0.677-28.156,2.002c0.129-0.25,0.265-0.498,0.392-0.75
	c1.221-2.423,1.222-5.281,0.003-7.707c-16.061-31.95-48.232-51.798-83.959-51.798c-35.715,0-67.884,19.847-83.958,51.795
	c-1.218,2.424-1.218,5.283,0.001,7.705c7.121,14.151,17.405,25.921,29.751,34.651H46.887v-66.154c0-4.734-3.837-8.572-8.572-8.572
	s-8.572,3.838-8.572,8.572v66.669C12.882,268.398,0,283.103,0,300.768v134.46c0,4.734,3.837,8.572,8.572,8.572h10.781
	c1.735,6.196,5.337,11.775,10.459,15.982c3.368,2.756,4.069,7.999,1.59,11.943l-7.35,11.71c-1.657,2.642-1.75,5.976-0.241,8.704
	c1.51,2.729,4.383,4.424,7.501,4.424h41.746c4.735,0,8.572-3.838,8.572-8.572v-44.193h31.327c4.735,0,8.572-3.838,8.572-8.572
	s-3.837-8.572-8.572-8.572H17.144v-82.285c42.883-2.053,83.743-19.457,115.862-49.531C166.462,263.512,210.143,246.26,256,246.26
	s89.538,17.252,122.994,48.579c32.118,30.074,72.978,47.48,115.862,49.533v82.285H140.386c-4.735,0-8.572,3.838-8.572,8.572
	c0,4.734,3.837,8.572,8.572,8.572h289.985v44.193c0,4.734,3.837,8.572,8.572,8.572h41.746c3.119,0,5.991-1.694,7.501-4.424
	c1.509-2.729,1.416-6.063-0.241-8.704l-7.353-11.715c-2.476-3.938-1.776-9.183,1.607-11.95c5.111-4.199,8.711-9.776,10.445-15.971
	h10.78c4.735,0,8.572-3.838,8.572-8.572V300.768C512,283.103,499.118,268.398,482.257,265.532z M64.486,479.42H46.754
	c6.072-11.098,3.596-24.987-6.075-32.897c-0.978-0.805-1.822-1.727-2.549-2.724h26.355C64.486,443.799,64.486,479.42,64.486,479.42z
	 M77.712,226.512c13.714-23.86,38.835-38.503,66.569-38.503c27.742,0,52.863,14.643,66.568,38.499
	c-1.914,3.319-4.079,6.471-6.448,9.446c-22.087,5.971-42.988,15.763-61.815,29.037C115.531,264.405,91.149,249.884,77.712,226.512z
	 M17.144,327.199v-26.43c0-10.26,8.348-18.607,18.607-18.607h85.718c-0.059,0.056-0.12,0.109-0.179,0.165
	C92.363,309.41,55.663,325.157,17.144,327.199z M471.335,446.511c-9.686,7.922-12.163,21.814-6.089,32.909h-17.732v-35.621h26.358
	C473.148,444.794,472.309,445.711,471.335,446.511z M301.152,226.507c13.703-23.856,38.826-38.499,66.568-38.499
	c27.734,0,52.855,14.644,66.569,38.503c-13.437,23.372-37.819,37.892-64.871,38.477c-18.828-13.274-39.729-23.066-61.815-29.037
	C305.23,232.977,303.065,229.824,301.152,226.507z M390.711,282.325c-0.059-0.056-0.12-0.109-0.179-0.165h85.718
	c10.26,0,18.607,8.347,18.607,18.607v26.43C456.337,325.157,419.637,309.41,390.711,282.325z"/>
<path d="M477.713,400.941v-33.535c0-4.181-3.016-7.751-7.137-8.452c-38.505-6.533-74.224-24.377-103.299-51.601
	c-30.268-28.342-69.787-43.951-111.276-43.951s-81.008,15.609-111.276,43.951c-29.074,27.224-64.795,45.067-103.299,51.6
	c-4.121,0.699-7.137,4.27-7.137,8.452v33.535c0,4.734,3.837,8.572,8.572,8.572h426.282
	C473.876,409.513,477.713,405.675,477.713,400.941z M460.569,392.369H51.431v-17.849c39.099-8.007,75.274-26.809,105.01-54.653
	c27.08-25.357,62.438-39.321,99.559-39.321s72.479,13.964,99.559,39.321c29.736,27.844,65.91,46.646,105.01,54.653V392.369z"/>
<path d="M38.315,178.291c4.735,0,8.572-3.838,8.572-8.572v-50.875c37.615-2.033,73.415-17.405,101.608-43.804
	C177.739,47.658,215.918,32.577,256,32.577c24.315,0,47.627,5.396,69.283,16.036c4.25,2.087,9.386,0.335,11.474-3.913
	c2.087-4.249,0.336-9.386-3.913-11.474C308.814,21.42,282.96,15.434,256,15.434c-44.45,0-86.79,16.724-119.221,47.091
	c-27.139,25.411-62.108,39.407-98.464,39.407c-4.735,0-8.572,3.838-8.572,8.572v59.216
	C29.743,174.453,33.581,178.291,38.315,178.291z"/>
</svg>