<?xml version="1.0" encoding="iso-8859-1"?>
<!-- Uploaded to: SVG Repo, www.svgrepo.com, Generator: SVG Repo Mixer Tools -->
<svg fill="#000000" height="800px" width="800px" version="1.1" id="Layer_1" xmlns="http://www.w3.org/2000/svg" xmlns:xlink="http://www.w3.org/1999/xlink" 
	 viewBox="0 0 503.607 503.607" xml:space="preserve">
<g>
	<g>
		<g>
			<path d="M503.178,276.984c-4.381-67.97-61.054-125.902-125.474-125.902H226.623v125.902H75.541V58.754H0v386.098h75.541v-92.328
				h352.525v92.328h75.541V293.77v-8.393v-8.393H503.178z M243.41,276.984V167.869h134.295c55.514,0,104.515,50.084,108.813,109.115
				H243.41z"/>
			<path d="M151.082,260.197c32.399,0,58.754-26.364,58.754-58.754c0-32.39-26.355-58.754-58.754-58.754
				s-58.754,26.364-58.754,58.754C92.328,233.833,118.683,260.197,151.082,260.197z"/>
		</g>
	</g>
</g>
</svg>