<?xml version="1.0" encoding="utf-8"?>
<!-- Svg Vector Icons : http://www.onlinewebfonts.com/icon -->
<!DOCTYPE svg PUBLIC "-//W3C//DTD SVG 1.1//EN" "http://www.w3.org/Graphics/SVG/1.1/DTD/svg11.dtd">
<svg version="1.1" xmlns="http://www.w3.org/2000/svg" xmlns:xlink="http://www.w3.org/1999/xlink" x="0px" y="0px" viewBox="0 0 256 256" enable-background="new 0 0 256 256" xml:space="preserve">
<metadata> Svg Vector Icons : http://www.onlinewebfonts.com/icon </metadata>
<g><g><g><path fill="#000000" d="M93.6,22.9C76.3,26.5,63.9,36.6,60.4,50c-1.2,4.7-1,7.7,1.8,20.8c1.7,7.7,1.7,7.7-1.2,10.4c-4.2,3.8-5.7,8.6-4.9,15.3c0.6,4.8,2.9,9.3,6.7,13.2c2.4,2.4,3.4,3.9,4.8,7.2c2.4,5.4,4.3,8.5,7.9,12.8l3,3.5l0.1,5c0.4,10.5-1.4,12.4-18.6,19.4c-26.1,10.6-37.9,19.5-45,34c-3.7,7.6-4.9,12.8-4.9,23.1v8.1l1.5,3.1c1.2,2.3,2.1,3.6,3.7,4.7c4.6,3.3-0.9,3.1,78.7,3.2c39.4,0,71.6,0,71.6-0.2s-1-0.8-2.2-1.6c-1.2-0.7-4.3-3.4-6.9-5.9l-4.7-4.5l-64.1-0.1c-63.5-0.1-64.1-0.1-64.8-1.1c-0.6-0.8-0.6-2.1-0.5-7.6c0.3-7.8,0.9-10.2,3.8-16c5.7-11.3,15.7-18.6,38.1-27.7c9.3-3.8,13.2-5.7,16.9-8.3c7.7-5.5,10.2-11.4,9.8-23.9c-0.2-7.2-1-9.4-5-14c-3.4-3.9-5.2-6.7-7.7-12.5c-1.9-4.4-2.5-5.4-5.3-8c-3.3-3.2-4.4-4.9-4.9-7.7c-0.4-2.6,0.4-4,3.2-6.1c5.2-3.8,5.6-7.5,2.6-22.4c-2.1-10.4-2.1-12.6-0.2-16.4c1.7-3.4,3.8-5.8,7.1-8.1c14-10,36.8-9.7,47.2,0.7c0.8,0.9,2.4,2.8,3.4,4.3l1.8,2.7h3c5.7,0,5.9,1.4,2.7,18.9c-2.5,13.8-2,17,3.3,20.8c2.4,1.7,3.1,3.2,2.8,5.7c-0.5,2.8-1.8,4.9-5,8c-2.5,2.4-3.2,3.5-5.1,7.9c-2.5,5.8-4.4,8.8-7.7,12.5c-3.9,4.3-4.7,6.7-4.9,13.9c-0.2,7.2,0.4,11.5,2.2,15.3c2.4,5,6.5,8.7,13.8,12.3c3.7,1.8,3.8,1.9,3.8,1.2c0-0.3,1.1-2.8,2.4-5.5c1.3-2.8,2.3-5.1,2.2-5.2c-0.1-0.1-1.8-1-3.7-1.9c-4.2-2.2-7.2-5-7.8-7.4c-0.6-2.4-0.6-11.1,0-12.3c0.3-0.5,1.8-2.4,3.3-4.3c3-3.7,5.3-7.3,7.5-12.7c1.2-2.7,2.2-4.3,4.6-6.7c5.4-5.5,7.9-12.6,6.7-19.2c-0.7-4.3-1.9-6.6-4.9-9.3l-2.6-2.4l0.5-2.9c0.3-1.6,1-5.7,1.7-9.1c1.6-8.7,1.8-12.7,1.2-17c-0.7-4.6-2.3-8-4.8-10.1c-1.8-1.5-5.4-3-7.4-3c-0.5,0-2.1-1.2-3.5-2.7c-4.8-5-10.8-8.4-18.7-10.5c-3.7-1.1-5.4-1.2-12.6-1.4C99.3,22.1,97,22.2,93.6,22.9z"/><path fill="#000000" d="M192.3,135.5c-13.3,1.9-22.2,6.1-30.5,14.6c-18.6,18.8-18.9,49.1-0.7,68.2c7.6,8,17.3,13.2,28.1,14.9c5.7,0.9,15.8,0.4,20.9-1.1c17.2-5,30-18,34.7-35.2c1.2-4.1,1.2-5.4,1.2-12.2c0-6.7-0.1-8.1-1.2-12.1c-5.2-19.5-20.9-33.7-40.5-36.6C200.2,135.3,195,135.1,192.3,135.5z M205.5,155.2l1.3,1.2l0.2,8.9l0.2,8.9l8.9,0.2l8.9,0.2l1.2,1.3l1.3,1.2v7.4v7.4l-1.5,1.3l-1.5,1.3h-8.8h-8.8v8.7c0,9.7-0.2,10.3-3,11.5c-2.4,1-12.4,0.9-14.5-0.2c-2.5-1.2-2.8-2.1-2.8-11.5v-8.4H178c-8.1,0-8.8,0-9.9-1c-1.8-1.4-2.3-3.7-2.1-10.5l0.2-6.1l1.5-1.3l1.5-1.3h8.8h8.8v-8.7c0-8.2,0-8.8,1-9.9c0.6-0.7,1.4-1.5,2-1.7c0.5-0.2,4-0.3,7.8-0.3C204.2,153.9,204.3,153.9,205.5,155.2z"/></g></g></g>
</svg>