<?xml version="1.0" encoding="utf-8"?>
<!-- Svg Vector Icons : http://www.onlinewebfonts.com/icon -->
<!DOCTYPE svg PUBLIC "-//W3C//DTD SVG 1.1//EN" "http://www.w3.org/Graphics/SVG/1.1/DTD/svg11.dtd">
<svg version="1.1" xmlns="http://www.w3.org/2000/svg" xmlns:xlink="http://www.w3.org/1999/xlink" x="0px" y="0px" viewBox="0 0 256 256" enable-background="new 0 0 256 256" xml:space="preserve">
<metadata> Svg Vector Icons : http://www.onlinewebfonts.com/icon </metadata>
<g> <path fill="#999999" d="M77.2,89.5l0.2,0.6l38.7,71c5,8.3,7.2,12.6,11.9,12.6c4.7,0,7.7-5,12.6-12.9l38.1-71.1l0.1-0.4 c2.9-6.8,4.3-14,4.3-21.4c0-30.4-24.7-55.2-55.2-55.2c-30.4,0-55.2,24.7-55.2,55.2c0,7.3,1.4,14.3,4.1,21 C77,89,77.1,89.2,77.2,89.5z M128,38.7c16.1,0,29.2,13.1,29.2,29.2S144.1,97.1,128,97.1S98.8,84,98.8,67.9S111.9,38.7,128,38.7z  M237,103.7l-31.9-5.7l-9.7,16.6l31.3,5.5v101.4l-55.9-9.9c-1.2-0.2-2.4-0.3-3.5-0.3s-2.4,0.1-3.5,0.3l-75.1,13.3l-59.5-10.6 l0-101.4l31.1,5.5l-7.9-19.8L23,93.7c-0.6-0.1-1.4-0.2-2-0.2c-2.5,0-5,0.8-7,2.4c-2.5,1.9-4,4.9-4,8V221c0,5,3.8,9.2,9,10.2 l67.6,12c0.6,0.1,1.4,0.2,2,0.2c0.7,0,1.4-0.1,2.1-0.2l76.7-13.6l65.7,11.6c0.7,0.1,1.4,0.2,2,0.2c2.5,0,5-0.8,7-2.4 c2.5-1.9,4-4.9,4-8V113.9C246,108.9,242.2,104.6,237,103.7z"/></g>
</svg>